<?xml version="1.0" encoding="UTF-8" standalone="no"?>
<svg
   width="360"
   height="360"
   viewBox="0 0 360 360"
   fill="none"
   class="heroImage_src-pages-index-module"
   role="image"
   version="1.1"
   id="svg6"
   sodipodi:docname="bluesky.svg"
   inkscape:version="1.2 (dc2aedaf03, 2022-05-15)"
   xmlns:inkscape="http://www.inkscape.org/namespaces/inkscape"
   xmlns:sodipodi="http://sodipodi.sourceforge.net/DTD/sodipodi-0.dtd"
   xmlns="http://www.w3.org/2000/svg"
   xmlns:svg="http://www.w3.org/2000/svg">
  <defs
     id="defs10" />
  <sodipodi:namedview
     id="namedview8"
     pagecolor="#505050"
     bordercolor="#ffffff"
     borderopacity="1"
     inkscape:showpageshadow="0"
     inkscape:pageopacity="0"
     inkscape:pagecheckerboard="1"
     inkscape:deskcolor="#505050"
     showgrid="false"
     inkscape:zoom="0.91592425"
     inkscape:cx="242.37812"
     inkscape:cy="145.20851"
     inkscape:window-width="1920"
     inkscape:window-height="1009"
     inkscape:window-x="-8"
     inkscape:window-y="-8"
     inkscape:window-maximized="1"
     inkscape:current-layer="svg6" />
  <path
     d="m 254.896,184.158 a 131.118,131.118 0 0 1 -6.225,-0.843 c 2.102,0.259 4.178,0.54 6.225,0.843 z"
     fill="#ffffff"
     id="path2" />
  <path
     d="M 180,161.96383 C 163.699,130.26183 119.308,71.181826 78.035,42.043826 c -39.538,-27.912 -54.621,-23.076 -64.509,-18.608 -11.445,5.172 -13.526,22.742 -13.526,33.08 0,10.338 5.667,84.756004 9.364,97.178004 12.215,41.044 55.696,54.913 95.74,50.462 2.047,-0.304 4.123,-0.584 6.225,-0.844 -2.062,0.33 -4.139,0.612 -6.225,0.844 -58.684,8.691 -110.8,30.077 -42.446,106.174 75.19,77.85 103.047,-16.693 117.342,-64.628 14.295,47.935 30.76,139.069 115.995,64.628 64.005,-64.628 17.585,-97.48 -41.099,-106.172 a 131.118,131.118 0 0 1 -6.225,-0.843 c 2.102,0.259 4.178,0.54 6.225,0.843 40.044,4.452 83.525,-9.418 95.74,-50.461 3.697,-12.422 9.364,-86.840004 9.364,-97.178004 0,-10.338 -2.081,-27.909 -13.526,-33.08 -9.888,-4.468 -24.971,-9.305 -64.509,18.608 C 240.692,71.183826 196.301,130.26183 180,161.96383 Z"
     fill="currentColor"
     id="path4"
     style="fill:#899294;fill-opacity:1" />
</svg>
