<?xml version="1.0" encoding="UTF-8" standalone="no"?>
<svg
   height="21.875"
   viewBox="0 -960 875 875"
   width="21.875"
   fill="#5f6368"
   version="1.1"
   id="svg11"
   sodipodi:docname="cemetech.svg"
   xml:space="preserve"
   inkscape:version="1.2 (dc2aedaf03, 2022-05-15)"
   xmlns:inkscape="http://www.inkscape.org/namespaces/inkscape"
   xmlns:sodipodi="http://sodipodi.sourceforge.net/DTD/sodipodi-0.dtd"
   xmlns="http://www.w3.org/2000/svg"
   xmlns:svg="http://www.w3.org/2000/svg"><defs
     id="defs15"><linearGradient
       id="linearGradient3118"
       inkscape:swatch="solid"><stop
         style="stop-color:#5f6368;stop-opacity:1;"
         offset="0"
         id="stop3116" /></linearGradient></defs><sodipodi:namedview
     id="namedview13"
     pagecolor="#505050"
     bordercolor="#ffffff"
     borderopacity="1"
     inkscape:showpageshadow="0"
     inkscape:pageopacity="0"
     inkscape:pagecheckerboard="1"
     inkscape:deskcolor="#505050"
     showgrid="false"
     showguides="true"
     inkscape:zoom="22.627417"
     inkscape:cx="12.904699"
     inkscape:cy="17.103145"
     inkscape:window-width="1920"
     inkscape:window-height="1009"
     inkscape:window-x="-8"
     inkscape:window-y="-8"
     inkscape:window-maximized="1"
     inkscape:current-layer="svg11"><sodipodi:guide
       position="-281.07495,-337.68813"
       orientation="0,-1"
       id="guide459"
       inkscape:locked="false" /><sodipodi:guide
       position="1087.1767,692.92"
       orientation="1,0"
       id="guide461"
       inkscape:locked="false" /><sodipodi:guide
       position="-611.64737,650.4936"
       orientation="1,0"
       id="guide681"
       inkscape:locked="false" /><sodipodi:guide
       position="0,425.35564"
       orientation="0,-1"
       id="guide683"
       inkscape:locked="false" /><sodipodi:guide
       position="279.30718,-270.51299"
       orientation="0,-1"
       id="guide685"
       inkscape:locked="false" /><sodipodi:guide
       position="-378.30213,811.36039"
       orientation="0,-1"
       id="guide687"
       inkscape:locked="false" /><sodipodi:guide
       position="0,425.35564"
       orientation="1,0"
       id="guide689"
       inkscape:locked="false" /><sodipodi:guide
       position="-328.80465,425.35564"
       orientation="1,0"
       id="guide693"
       inkscape:locked="false" /><sodipodi:guide
       position="351.67515,184.41816"
       orientation="0,-1"
       id="guide695"
       inkscape:locked="false" /><sodipodi:guide
       position="357.61264,67.699395"
       orientation="0,-1"
       id="guide697"
       inkscape:locked="false" /><sodipodi:guide
       position="-807.8695,14.097494"
       orientation="1,0"
       id="guide271"
       inkscape:locked="false" /><sodipodi:guide
       position="-807.8695,-72.523087"
       orientation="1,0"
       id="guide273"
       inkscape:locked="false" /><sodipodi:guide
       position="558.61436,-182.12464"
       orientation="0,-1"
       id="guide275"
       inkscape:locked="false" /></sodipodi:namedview><path
     style="fill:#899294;fill-opacity:1;stroke-width:137.76;stroke-dasharray:none"
     d="m 714.82011,-153.31215 c -25.1155,-37.04532 -46.3378,-67.77112 -47.1605,-68.27956 -0.8228,-0.5084 -7.2424,2.7528 -14.266,7.24716 -63.3826,40.55784 -141.9449,63.48148 -207.2247,60.46596 -64.5719,-2.9828 -128.3169,-24.49296 -185.1884,-62.49004 -77.4547,-51.74916 -128.8676,-127.9876 -147.022,-218.014 -14.509097,-71.94972 -7.6461,-138.36696 21.3419,-206.53877 19.598,-46.08905 43.3252,-81.59837 78.9148,-118.10108 l 20.9307,-21.46782 -37.3462,-86.0232 c -20.5404,-47.31278 -37.0866,-87.37068 -36.7695,-89.01758 0.3172,-1.647 1.7478,-2.9944 3.1791,-2.9944 1.4318,0 20.2849,25.8449 41.9098,57.4524 21.619,31.59881 44.9423,65.6466 51.8295,75.66173 l 12.5222,18.20931 9.1835,-5.51238 c 88.1627,-52.92 191.9605,-63.10305 294.8455,-28.92575 25.9102,8.60709 63.7506,27.42296 83.603,41.57102 32.4394,23.11835 61.2026,52.77578 65.6555,67.69669 5.9425,19.91202 1.4648,41.49538 -11.7149,56.46822 -10.0907,11.46364 -29.9138,21.09645 -42.8024,20.79932 -18.1068,-0.41742 -28.5677,-6.03173 -59.5856,-31.97919 -24.4172,-20.42578 -32.3151,-25.96611 -48.5816,-34.07972 -32.2217,-16.0719 -52.4968,-19.93756 -104.2983,-19.88555 -38.2904,0.0384 -41.768,0.32 -59.7044,4.83746 -19.4745,4.90458 -43.1001,13.84918 -54.7755,20.73787 l -6.5368,3.85684 7.3722,10.89614 c 24.8569,36.7384 95.6962,140.18824 96.8383,141.41736 0.7536,0.8108 18.2145,-23.25292 38.8022,-53.47495 20.5878,-30.22206 38.2323,-54.94919 39.2102,-54.94919 2.3612,0 5.1411,6.22008 76.803,171.84006 61.0055,140.99168 61.7847,142.6572 66.1599,141.42136 2.4352,-0.688 10.7914,-1.2068 18.5696,-1.1532 11.9829,0.084 15.7485,0.8932 24.6635,5.30956 18.8086,9.31704 26.9261,24.66156 25.195,47.62588 -1.3324,17.67644 -6.6199,30.22696 -18.0603,42.86892 l -9.6955,10.71388 33.6364,77.50684 c 18.5,42.62876 33.4142,79.097849 33.1428,81.042409 -0.284,2.0336 -2.0692,3.7604 -4.2024,4.0652 -3.0916,0.4416 -11.3101,-10.68216 -49.3736,-66.825409 z m -211.528,-119.29276 c 28.7985,-5.59964 58.1072,-18.21636 87.0966,-37.49304 7.1615,-4.76208 11.674,-8.88944 10.9928,-10.05476 -3.0148,-5.15768 -109.0459,-161.35072 -110.8345,-163.26904 -1.584,-1.6988 -10.084,9.49408 -37.7008,49.64424 -19.6106,28.5106 -36.8384,52.81908 -38.284,54.01876 -2.1576,1.7908 -3.1044,1.448 -5.2874,-1.9144 -1.4624,-2.2528 -29.4373,-65.74664 -62.1661,-141.09772 -32.7287,-75.3512 -60.489,-138.87753 -61.6896,-141.16977 -2.1492,-4.1034 -2.3119,-3.99611 -10.5397,6.94932 -24.2905,32.31345 -41.1608,73.92229 -47.1748,116.35137 -2.9822,21.03988 -1.0878,67.2272 3.5969,87.69576 10.5865,46.25452 27.9105,79.24856 58.3283,111.08784 35.8806,37.55728 86.4206,63.3636 140.6292,71.80684 14.7436,2.2964 55.3962,0.874 73.0331,-2.5552 z"
     id="path294"
     sodipodi:nodetypes="cssssssscssssscssssssssscscscssssccsscssscccssssscssssssscc" /></svg>
