<?xml version="1.0" encoding="UTF-8" standalone="no"?>
<svg
   height="40"
   width="40"
   version="1.1"
   id="svg4"
   sodipodi:docname="in-progress.svg"
   inkscape:version="1.2 (dc2aedaf03, 2022-05-15)"
   xmlns:inkscape="http://www.inkscape.org/namespaces/inkscape"
   xmlns:sodipodi="http://sodipodi.sourceforge.net/DTD/sodipodi-0.dtd"
   xmlns="http://www.w3.org/2000/svg"
   xmlns:svg="http://www.w3.org/2000/svg">
  <defs
     id="defs8" />
  <sodipodi:namedview
     id="namedview6"
     pagecolor="#505050"
     bordercolor="#ffffff"
     borderopacity="1"
     inkscape:showpageshadow="0"
     inkscape:pageopacity="0"
     inkscape:pagecheckerboard="1"
     inkscape:deskcolor="#505050"
     showgrid="false"
     inkscape:zoom="17.270833"
     inkscape:cx="15.691195"
     inkscape:cy="25.302775"
     inkscape:window-width="1920"
     inkscape:window-height="1009"
     inkscape:window-x="-8"
     inkscape:window-y="-8"
     inkscape:window-maximized="1"
     inkscape:current-layer="svg4" />
  <path
     d="m 9.3,22.5 q 1.05,0 1.775,-0.725 Q 11.8,21.05 11.8,20 11.8,18.95 11.075,18.225 10.35,17.5 9.3,17.5 8.25,17.5 7.525,18.225 6.8,18.95 6.8,20 6.8,21.05 7.525,21.775 8.25,22.5 9.3,22.5 Z m 10.7,0 q 1.05,0 1.775,-0.725 Q 22.5,21.05 22.5,20 22.5,18.95 21.775,18.225 21.05,17.5 20,17.5 18.95,17.5 18.225,18.225 17.5,18.95 17.5,20 q 0,1.05 0.725,1.775 Q 18.95,22.5 20,22.5 Z m 10.65,0 q 1.05,0 1.775,-0.725 Q 33.15,21.05 33.15,20 33.15,18.95 32.425,18.225 31.7,17.5 30.65,17.5 29.6,17.5 28.875,18.225 28.15,18.95 28.15,20 q 0,1.05 0.725,1.775 Q 29.6,22.5 30.65,22.5 Z M 20,40 Q 15.9,40 12.25,38.425 8.6,36.85 5.875,34.125 3.15,31.4 1.575,27.75 0,24.1 0,19.95 0,15.85 1.575,12.2 3.15,8.55 5.875,5.85 8.6,3.15 12.25,1.575 15.9,0 20.05,0 q 4.1,0 7.75,1.575 3.65,1.575 6.35,4.275 2.7,2.7 4.275,6.35 Q 40,15.85 40,20 q 0,4.1 -1.575,7.75 -1.575,3.65 -4.275,6.375 -2.7,2.725 -6.35,4.3 Q 24.15,40 20,40 Z m 0.05,-3 q 7.05,0 12,-4.975 Q 37,27.05 37,19.95 37,12.9 32.05,7.95 27.1,3 20,3 12.95,3 7.975,7.95 3,12.9 3,20 3,27.05 7.975,32.025 12.95,37 20.05,37 Z M 20,20 Z"
     id="path2"
     style="fill:#009ad9;fill-opacity:1" />
</svg>
