<?xml version="1.0" encoding="UTF-8" standalone="no"?>
<!-- Created with Inkscape (http://www.inkscape.org/) -->

<svg
   width="210mm"
   height="210mm"
   viewBox="0 0 210 210"
   version="1.1"
   id="svg5"
   xml:space="preserve"
   inkscape:version="1.2 (dc2aedaf03, 2022-05-15)"
   sodipodi:docname="mycalcs.svg"
   xmlns:inkscape="http://www.inkscape.org/namespaces/inkscape"
   xmlns:sodipodi="http://sodipodi.sourceforge.net/DTD/sodipodi-0.dtd"
   xmlns="http://www.w3.org/2000/svg"
   xmlns:svg="http://www.w3.org/2000/svg"><sodipodi:namedview
     id="namedview7"
     pagecolor="#505050"
     bordercolor="#ffffff"
     borderopacity="1"
     inkscape:showpageshadow="0"
     inkscape:pageopacity="0"
     inkscape:pagecheckerboard="1"
     inkscape:deskcolor="#505050"
     inkscape:document-units="mm"
     showgrid="false"
     showguides="true"
     inkscape:zoom="0.26110523"
     inkscape:cx="-337.02887"
     inkscape:cy="815.76305"
     inkscape:window-width="1920"
     inkscape:window-height="1009"
     inkscape:window-x="-8"
     inkscape:window-y="-8"
     inkscape:window-maximized="1"
     inkscape:current-layer="layer1" /><defs
     id="defs2" /><g
     inkscape:label="Layer 1"
     inkscape:groupmode="layer"
     id="layer1"><path
       id="path1682"
       style="opacity:1;fill:#899294;stroke-width:0.911225"
       d="M 104.99979,0 C 47.010055,1.1597935e-4 1.1597935e-4,47.010055 0,104.99979 c -1.712085e-4,57.98994 47.009852,105.00019 104.99979,105.00031 57.07107,-0.0328 103.66564,-45.64485 104.91453,-102.70226 -1.69761,2.36546 -3.89578,4.43483 -6.55774,6.03529 L 97.999186,176.67759 c -10.434268,6.27344 -23.884922,2.92413 -30.158366,-7.51014 L 37.163623,118.14318 C 30.890179,107.70891 34.240008,94.258254 44.674276,87.98481 L 150.03167,24.640356 c 7.09243,-4.264215 18.31951,1.45285 16.6795,0.156033 C 147.83112,9.0360833 129.59336,8.1218894e-5 104.99979,0 Z"
       sodipodi:nodetypes="ccccsscccccc" /><path
       id="rect6580"
       style="fill:#899294;stroke-width:0.965542"
       d="m 172.3495,38.233136 c -3.50501,-5.829818 -11.02015,-7.701413 -16.84997,-4.196381 L 51.451263,96.59317 c -5.82979,3.50501 -7.701885,11.02045 -4.19685,16.85025 l 29.932943,49.78661 c 3.505035,5.82984 11.020657,7.70112 16.850446,4.19612 L 198.08608,104.86971 c 5.82981,-3.50502 7.70139,-11.020143 4.19638,-16.849975 z m -4.51571,9.802436 23.82649,39.629931 c 2.80068,4.658258 1.30513,10.66337 -3.35314,13.464047 l -33.28617,20.01248 c -4.65825,2.80067 -10.66291,1.30485 -13.46356,-3.35343 L 117.7309,78.158685 c -2.80067,-4.658266 -1.30558,-10.663103 3.35267,-13.463768 l 33.28617,-20.012483 c 4.65823,-2.80066 10.66337,-1.305129 13.46405,3.353138 z m -59.82424,27.952655 5.477,9.109703 c 0.8398,1.396862 0.39134,3.197586 -1.0055,4.037412 l -10.16513,6.11152 c -1.39686,0.839825 -3.197585,0.391367 -4.037411,-1.005484 l -5.476981,-9.109709 c -0.839824,-1.396855 -0.391366,-3.197584 1.005496,-4.037414 l 10.165096,-6.111522 c 1.39687,-0.839826 3.19761,-0.39136 4.03743,1.005494 z m 12.22528,20.33399 6.06385,10.085793 c 0.83982,1.39688 0.3911,3.19714 -1.00577,4.03695 l -10.57338,6.357 c -1.39686,0.83983 -3.19731,0.39184 -4.03714,-1.00502 l -6.06384,-10.08581 c -0.83982,-1.39686 -0.39137,-3.1976 1.00549,-4.03741 l 10.57339,-6.356997 c 1.39685,-0.839825 3.19759,-0.391346 4.0374,1.005494 z m 12.61637,20.984423 6.06385,10.08578 c 0.83981,1.39687 0.39133,3.19761 -1.0055,4.03743 l -10.57339,6.357 c -1.39684,0.83982 -3.1976,0.39135 -4.03741,-1.00549 l -6.06385,-10.08583 c -0.83982,-1.39684 -0.39109,-3.19712 1.00577,-4.03694 l 10.5734,-6.35698 c 1.39685,-0.83982 3.1973,-0.39182 4.03713,1.00503 z m -44.687584,-29.386542 5.47698,9.109705 c 0.839828,1.396872 0.391366,3.197587 -1.005498,4.037417 l -9.922958,5.96593 c -1.396865,0.83983 -3.197588,0.39135 -4.037417,-1.00549 L 73.197742,96.917961 C 72.357916,95.5211 72.806376,93.720379 74.203236,92.880533 l 9.922962,-5.965924 c 1.396866,-0.839829 3.197593,-0.391366 4.037418,1.005489 z m 12.225294,20.333992 6.06386,10.08582 c 0.83982,1.39686 0.39108,3.1971 -1.0058,4.03693 l -9.92295,5.96594 c -1.396866,0.83984 -3.197308,0.39183 -4.037137,-1.00502 l -6.063839,-10.08582 c -0.839825,-1.39686 -0.391367,-3.19757 1.005499,-4.03739 L 96.3515,107.2486 c 1.396865,-0.83982 3.197594,-0.39137 4.03741,1.00549 z m 13.05651,21.71648 5.18356,8.62167 c 1.08364,1.80238 0.50495,4.12599 -1.29744,5.20962 l -8.45882,5.08565 c -1.8024,1.08365 -4.12599,0.50497 -5.20962,-1.29742 l -5.183556,-8.62165 c -1.083648,-1.80239 -0.5047,-4.12551 1.29771,-5.20918 l 8.458796,-5.08564 c 1.8024,-1.08362 4.12572,-0.50543 5.20937,1.29695 z m -44.036702,-29.77785 4.596692,7.64553 c 1.083651,1.80242 0.504979,4.12597 -1.297432,5.20964 l -9.272537,5.57488 c -1.80241,1.08367 -4.12599,0.50501 -5.209641,-1.29743 l -4.596691,-7.64553 c -1.083654,-1.80242 -0.504982,-4.12599 1.29743,-5.20963 l 9.272537,-5.574882 c 1.802413,-1.083673 4.125987,-0.504989 5.209642,1.297422 z m 12.225303,20.33401 5.183548,8.62163 c 1.083655,1.80239 0.504699,4.12551 -1.297712,5.20916 l -9.272539,5.5749 c -1.802409,1.08363 -4.125703,0.50545 -5.209358,-1.29696 l -5.183548,-8.62165 c -1.08365,-1.8024 -0.504979,-4.12599 1.29743,-5.20964 l 9.272538,-5.57488 c 1.80241,-1.08366 4.12599,-0.50497 5.209641,1.29744 z m 12.616352,20.9844 5.183551,8.62165 c 1.083656,1.80239 0.50499,4.12597 -1.297429,5.20962 l -9.27254,5.57488 c -1.802411,1.08365 -4.125987,0.505 -5.209636,-1.29742 l -5.183555,-8.62163 c -1.083647,-1.8024 -0.504697,-4.12552 1.297714,-5.20918 l 9.272538,-5.57487 c 1.802409,-1.08366 4.12571,-0.50544 5.209357,1.29695 z" /></g></svg>
